<svg width="14" height="14" viewBox="0 0 14 14" fill="none" xmlns="http://www.w3.org/2000/svg">
<g clip-path="url(#clip0_772_3457)">
<path d="M13.0194 2.58475L4.95828 10.6453C4.90408 10.6997 4.83968 10.7428 4.76875 10.7723C4.69783 10.8018 4.62179 10.8169 4.54499 10.8169C4.46819 10.8169 4.39215 10.8018 4.32123 10.7723C4.2503 10.7428 4.1859 10.6997 4.1317 10.6453L1.01437 7.525C0.960168 7.47059 0.89576 7.42742 0.824837 7.39796C0.753914 7.3685 0.677872 7.35334 0.601074 7.35334C0.524276 7.35334 0.448233 7.3685 0.37731 7.39796C0.306387 7.42742 0.241979 7.47059 0.187782 7.525C0.133371 7.5792 0.0901966 7.64361 0.0607373 7.71453C0.031278 7.78546 0.0161133 7.8615 0.0161133 7.9383C0.0161133 8.01509 0.031278 8.09114 0.0607373 8.16206C0.0901966 8.23298 0.133371 8.29739 0.187782 8.35159L3.30628 11.4695C3.63525 11.7979 4.08106 11.9823 4.54587 11.9823C5.01067 11.9823 5.45648 11.7979 5.78545 11.4695L13.8459 3.41075C13.9003 3.35657 13.9434 3.2922 13.9728 3.22133C14.0022 3.15046 14.0173 3.07448 14.0173 2.99775C14.0173 2.92103 14.0022 2.84505 13.9728 2.77418C13.9434 2.70331 13.9003 2.63894 13.8459 2.58475C13.7918 2.53034 13.7273 2.48717 13.6564 2.45771C13.5855 2.42825 13.5095 2.41309 13.4327 2.41309C13.3559 2.41309 13.2798 2.42825 13.2089 2.45771C13.138 2.48717 13.0736 2.53034 13.0194 2.58475Z" fill="#4285F4"/>
</g>
<defs>
<clipPath id="clip0_772_3457">
<rect width="14" height="14" fill="white"/>
</clipPath>
</defs>
</svg>
