<svg width="24" height="24" viewBox="0 0 24 24" fill="none" xmlns="http://www.w3.org/2000/svg">
<path d="M17.5899 15L6.40989 15C6.21211 14.9992 6.01903 14.9397 5.85504 14.8292C5.69106 14.7186 5.56354 14.5619 5.48862 14.3789C5.41369 14.1958 5.39472 13.9947 5.43411 13.8009C5.47349 13.6071 5.56946 13.4293 5.70988 13.29L11.2899 7.71001C11.3828 7.61628 11.4934 7.54189 11.6153 7.49112C11.7372 7.44035 11.8679 7.41422 11.9999 7.41422C12.1319 7.41422 12.2626 7.44035 12.3845 7.49112C12.5063 7.54189 12.6169 7.61628 12.7099 7.71001L18.2899 13.29C18.4303 13.4293 18.5263 13.6071 18.5657 13.8009C18.605 13.9947 18.5861 14.1958 18.5112 14.3789C18.4362 14.5619 18.3087 14.7186 18.1447 14.8292C17.9807 14.9397 17.7877 14.9992 17.5899 15Z" fill="#00AFEC"/>
</svg>
