<svg width="16" height="16" viewBox="0 0 16 16" fill="none" xmlns="http://www.w3.org/2000/svg">
<g clip-path="url(#clip0_772_3300)">
<path d="M15.5139 6.27923C14.9121 5.29372 14.1529 4.4134 13.2666 3.67323L15.1332 1.80657C15.2547 1.68083 15.3219 1.51243 15.3204 1.33763C15.3188 1.16283 15.2487 0.995625 15.1251 0.87202C15.0015 0.748415 14.8343 0.678302 14.6595 0.676783C14.4847 0.675264 14.3163 0.74246 14.1906 0.863899L12.1606 2.89657C10.9022 2.14911 9.46353 1.75954 7.99991 1.7699C3.87258 1.7699 1.52058 4.59523 0.485912 6.27923C0.166264 6.79624 -0.00305176 7.39206 -0.00305176 7.9999C-0.00305176 8.60774 0.166264 9.20356 0.485912 9.72057C1.08775 10.7061 1.8469 11.5864 2.73325 12.3266L0.866579 14.1932C0.802905 14.2547 0.752117 14.3283 0.717178 14.4096C0.682239 14.491 0.663848 14.5784 0.663078 14.667C0.662309 14.7555 0.679177 14.8433 0.712698 14.9252C0.746218 15.0071 0.79572 15.0816 0.858315 15.1442C0.920911 15.2068 0.995345 15.2563 1.07728 15.2898C1.15921 15.3233 1.24699 15.3402 1.33551 15.3394C1.42403 15.3386 1.51151 15.3202 1.59285 15.2853C1.67418 15.2504 1.74775 15.1996 1.80925 15.1359L3.84391 13.1012C5.10076 13.8486 6.53769 14.2388 7.99991 14.2299C12.1272 14.2299 14.4792 11.4046 15.5139 9.72057C15.8336 9.20356 16.0029 8.60774 16.0029 7.9999C16.0029 7.39206 15.8336 6.79624 15.5139 6.27923ZM1.62191 9.02257C1.432 8.71526 1.33141 8.36115 1.33141 7.9999C1.33141 7.63865 1.432 7.28454 1.62191 6.97723C2.51125 5.53323 4.52125 3.10323 7.99991 3.10323C9.10676 3.09703 10.1981 3.36379 11.1772 3.8799L9.83525 5.2219C9.1952 4.79697 8.42785 4.60656 7.6634 4.683C6.89895 4.75943 6.18449 5.09799 5.64125 5.64123C5.098 6.18448 4.75944 6.89894 4.68301 7.66339C4.60658 8.42784 4.79698 9.19519 5.22191 9.83523L3.68191 11.3752C2.86531 10.715 2.16847 9.9192 1.62191 9.02257ZM9.99991 7.9999C9.99991 8.53033 9.7892 9.03904 9.41413 9.41411C9.03905 9.78919 8.53035 9.9999 7.99991 9.9999C7.70292 9.99875 7.41004 9.93037 7.14325 9.7999L9.79991 7.14323C9.93039 7.41003 9.99876 7.70291 9.99991 7.9999ZM5.99991 7.9999C5.99991 7.46947 6.21063 6.96076 6.5857 6.58569C6.96077 6.21061 7.46948 5.9999 7.99991 5.9999C8.2969 6.00105 8.58978 6.06943 8.85658 6.1999L6.19991 8.85657C6.06944 8.58977 6.00106 8.29689 5.99991 7.9999ZM14.3779 9.02257C13.4886 10.4666 11.4786 12.8966 7.99991 12.8966C6.89306 12.9028 5.80175 12.636 4.82258 12.1199L6.16458 10.7779C6.80462 11.2028 7.57197 11.3932 8.33642 11.3168C9.10087 11.2404 9.81534 10.9018 10.3586 10.3586C10.9018 9.81532 11.2404 9.10086 11.3168 8.33641C11.3932 7.57196 11.2028 6.80461 10.7779 6.16457L12.3179 4.62457C13.1345 5.28475 13.8314 6.0806 14.3779 6.97723C14.5678 7.28454 14.6684 7.63865 14.6684 7.9999C14.6684 8.36115 14.5678 8.71526 14.3779 9.02257Z" fill="#757575"/>
</g>
<defs>
<clipPath id="clip0_772_3300">
<rect width="16" height="16" fill="white"/>
</clipPath>
</defs>
</svg>
