<svg width="24" height="24" viewBox="0 0 24 24" fill="none" xmlns="http://www.w3.org/2000/svg">
<g clip-path="url(#clip0_93_592)">
<path d="M19 0.999878H4.99999C3.6744 1.00147 2.40355 1.52876 1.46621 2.4661C0.528874 3.40344 0.00158023 4.67428 -7.62939e-06 5.99988L-7.62939e-06 17.9999C0.00158023 19.3255 0.528874 20.5963 1.46621 21.5337C2.40355 22.471 3.6744 22.9983 4.99999 22.9999H19C20.3256 22.9983 21.5964 22.471 22.5338 21.5337C23.4711 20.5963 23.9984 19.3255 24 17.9999V5.99988C23.9984 4.67428 23.4711 3.40344 22.5338 2.4661C21.5964 1.52876 20.3256 1.00147 19 0.999878ZM4.99999 2.99988H19C19.5988 3.00106 20.1835 3.18139 20.6789 3.51768C21.1744 3.85397 21.5578 4.33082 21.78 4.88688L14.122 12.5459C13.5584 13.1072 12.7954 13.4223 12 13.4223C11.2046 13.4223 10.4416 13.1072 9.87799 12.5459L2.21999 4.88688C2.44214 4.33082 2.82561 3.85397 3.32104 3.51768C3.81647 3.18139 4.40121 3.00106 4.99999 2.99988ZM19 20.9999H4.99999C4.20434 20.9999 3.44128 20.6838 2.87867 20.1212C2.31606 19.5586 1.99999 18.7955 1.99999 17.9999V7.49988L8.46399 13.9599C9.40262 14.8961 10.6742 15.4219 12 15.4219C13.3257 15.4219 14.5974 14.8961 15.536 13.9599L22 7.49988V17.9999C22 18.7955 21.6839 19.5586 21.1213 20.1212C20.5587 20.6838 19.7956 20.9999 19 20.9999Z" fill="#005BAC"/>
</g>
<defs>
<clipPath id="clip0_93_592">
<rect width="24" height="24" fill="white"/>
</clipPath>
</defs>
</svg>
