<svg width="20" height="20" viewBox="0 0 20 20" fill="none" xmlns="http://www.w3.org/2000/svg">
<g clip-path="url(#clip0_93_594)">
<path d="M5.8332 20C5.72353 20.0006 5.61481 19.9796 5.51328 19.9381C5.41175 19.8966 5.3194 19.8355 5.24153 19.7583C5.16343 19.6808 5.10143 19.5887 5.05912 19.4871C5.01682 19.3856 4.99504 19.2766 4.99504 19.1666C4.99504 19.0566 5.01682 18.9477 5.05912 18.8462C5.10143 18.7446 5.16343 18.6524 5.24153 18.575L12.0499 11.7666C12.518 11.2979 12.781 10.6625 12.781 9.99998C12.781 9.33748 12.518 8.70207 12.0499 8.23331L5.24153 1.42499C5.08461 1.26807 4.99646 1.05524 4.99646 0.833324C4.99646 0.611406 5.08461 0.398578 5.24153 0.241658C5.39845 0.0847385 5.61128 -0.00341797 5.8332 -0.00341797C6.05512 -0.00341797 6.26795 0.0847385 6.42487 0.241658L13.2332 7.04998C13.6212 7.43703 13.9291 7.89683 14.1391 8.40303C14.3492 8.90924 14.4573 9.45192 14.4573 9.99998C14.4573 10.548 14.3492 11.0907 14.1391 11.5969C13.9291 12.1031 13.6212 12.5629 13.2332 12.95L6.42487 19.7583C6.347 19.8355 6.25465 19.8966 6.15312 19.9381C6.05159 19.9796 5.94287 20.0006 5.8332 20Z" fill="#757575"/>
</g>
<defs>
<clipPath id="clip0_93_594">
<rect width="20" height="20" fill="white"/>
</clipPath>
</defs>
</svg>
