<svg width="12" height="7" viewBox="0 0 12 7" fill="none" xmlns="http://www.w3.org/2000/svg">
<path d="M0.408446 6.15829C0.485915 6.23639 0.578082 6.29839 0.679631 6.3407C0.781181 6.383 0.890102 6.40479 1.00011 6.40479C1.11012 6.40479 1.21904 6.383 1.32059 6.3407C1.42214 6.29839 1.51431 6.23639 1.59178 6.15829L5.40845 2.34163C5.48591 2.26352 5.57808 2.20153 5.67963 2.15922C5.78118 2.11691 5.8901 2.09513 6.00011 2.09513C6.11012 2.09513 6.21904 2.11691 6.32059 2.15922C6.42214 2.20153 6.51431 2.26352 6.59178 2.34163L10.4084 6.15829C10.4859 6.23639 10.5781 6.29839 10.6796 6.3407C10.7812 6.383 10.8901 6.40479 11.0001 6.40479C11.1101 6.40479 11.219 6.383 11.3206 6.3407C11.4221 6.29839 11.5143 6.23639 11.5918 6.15829C11.747 6.00215 11.8341 5.79094 11.8341 5.57079C11.8341 5.35063 11.747 5.13942 11.5918 4.98329L7.76678 1.1583C7.29803 0.69013 6.66261 0.427165 6.00011 0.427166C5.33761 0.427166 4.7022 0.69013 4.23345 1.1583L0.408446 4.98329C0.253237 5.13943 0.166118 5.35063 0.166118 5.57079C0.166118 5.79094 0.253237 6.00215 0.408446 6.15829Z" fill="#757575"/>
</svg>
