<svg width="16" height="16" viewBox="0 0 16 16" fill="none" xmlns="http://www.w3.org/2000/svg">
<path d="M10.5267 12.4733C10.5892 12.4113 10.6388 12.3376 10.6726 12.2563C10.7065 12.1751 10.7239 12.088 10.7239 12C10.7239 11.912 10.7065 11.8248 10.6726 11.7436C10.6388 11.6623 10.5892 11.5886 10.5267 11.5266L7.47335 8.47329C7.41087 8.41132 7.36127 8.33758 7.32742 8.25634C7.29358 8.1751 7.27615 8.08797 7.27615 7.99996C7.27615 7.91195 7.29358 7.82481 7.32742 7.74357C7.36127 7.66233 7.41087 7.5886 7.47335 7.52663L10.5267 4.47329C10.5892 4.41132 10.6388 4.33758 10.6726 4.25634C10.7065 4.1751 10.7239 4.08797 10.7239 3.99996C10.7239 3.91195 10.7065 3.82481 10.6726 3.74357C10.6388 3.66233 10.5892 3.5886 10.5267 3.52663C10.4018 3.40246 10.2328 3.33276 10.0567 3.33276C9.88056 3.33276 9.71159 3.40246 9.58668 3.52663L6.52669 6.58663C6.15215 6.96163 5.94178 7.46996 5.94178 7.99996C5.94178 8.52996 6.15215 9.03829 6.52669 9.41329L9.58668 12.4733C9.71159 12.5975 9.88056 12.6672 10.0567 12.6672C10.2328 12.6672 10.4018 12.5975 10.5267 12.4733Z" fill="#757575"/>
</svg>
