<svg width="16" height="16" viewBox="0 0 16 16" fill="none" xmlns="http://www.w3.org/2000/svg">
<path d="M5.47357 3.52671C5.41108 3.58868 5.36148 3.66242 5.32764 3.74366C5.29379 3.8249 5.27637 3.91203 5.27637 4.00004C5.27637 4.08805 5.29379 4.17519 5.32764 4.25643C5.36148 4.33767 5.41108 4.4114 5.47357 4.47337L8.52689 7.52671C8.58938 7.58868 8.63897 7.66242 8.67282 7.74366C8.70667 7.8249 8.72409 7.91203 8.72409 8.00004C8.72409 8.08805 8.70667 8.17519 8.67282 8.25643C8.63897 8.33766 8.58938 8.4114 8.52689 8.47337L5.47357 11.5267C5.41108 11.5887 5.36148 11.6624 5.32764 11.7437C5.29379 11.8249 5.27637 11.912 5.27637 12C5.27637 12.088 5.29379 12.1752 5.32764 12.2564C5.36148 12.3377 5.41108 12.4114 5.47357 12.4734C5.59847 12.5975 5.76744 12.6672 5.94356 12.6672C6.11969 12.6672 6.28866 12.5975 6.41356 12.4734L9.47356 9.41337C9.84809 9.03837 10.0585 8.53004 10.0585 8.00004C10.0585 7.47004 9.84809 6.96171 9.47356 6.58671L6.41356 3.52671C6.28866 3.40254 6.11969 3.33285 5.94356 3.33285C5.76744 3.33285 5.59847 3.40254 5.47357 3.52671Z" fill="#757575"/>
</svg>
