<svg width="4" height="14" viewBox="0 0 4 14" fill="none" xmlns="http://www.w3.org/2000/svg">
<path d="M1.75016 2.33333C2.39449 2.33333 2.91682 1.811 2.91682 1.16667C2.91682 0.522334 2.39449 0 1.75016 0C1.10583 0 0.583496 0.522334 0.583496 1.16667C0.583496 1.811 1.10583 2.33333 1.75016 2.33333Z" fill="#757575"/>
<path d="M1.75016 8.16682C2.39449 8.16682 2.91682 7.64449 2.91682 7.00016C2.91682 6.35583 2.39449 5.8335 1.75016 5.8335C1.10583 5.8335 0.583496 6.35583 0.583496 7.00016C0.583496 7.64449 1.10583 8.16682 1.75016 8.16682Z" fill="#757575"/>
<path d="M1.75016 13.9998C2.39449 13.9998 2.91682 13.4775 2.91682 12.8332C2.91682 12.1888 2.39449 11.6665 1.75016 11.6665C1.10583 11.6665 0.583496 12.1888 0.583496 12.8332C0.583496 13.4775 1.10583 13.9998 1.75016 13.9998Z" fill="#757575"/>
</svg>
