<svg width="16" height="16" viewBox="0 0 16 16" fill="none" xmlns="http://www.w3.org/2000/svg">
<path d="M9.41313 10.2665L12.4731 7.20654C12.5973 7.08163 12.667 6.91266 12.667 6.73653C12.667 6.56041 12.5973 6.39144 12.4731 6.26653C12.4112 6.20405 12.3374 6.15445 12.2562 6.12061C12.1749 6.08676 12.0878 6.06934 11.9998 6.06934C11.9118 6.06934 11.8247 6.08676 11.7434 6.12061C11.6622 6.15445 11.5884 6.20405 11.5265 6.26653L8.47313 9.3332C8.41115 9.39569 8.33742 9.44528 8.25618 9.47913C8.17494 9.51298 8.0878 9.5304 7.9998 9.5304C7.91179 9.5304 7.82465 9.51298 7.74341 9.47913C7.66217 9.44528 7.58844 9.39569 7.52646 9.3332L4.47313 6.26653C4.34848 6.141 4.17906 6.07012 4.00215 6.0695C3.82524 6.06887 3.65533 6.13855 3.5298 6.2632C3.40426 6.38785 3.33338 6.55727 3.33276 6.73418C3.33213 6.91109 3.40181 7.081 3.52646 7.20654L6.58646 10.2665C6.96146 10.6411 7.46979 10.8514 7.9998 10.8514C8.5298 10.8514 9.03813 10.6411 9.41313 10.2665Z" fill="#757575"/>
</svg>
